<svg width="40" height="40" viewBox="0 0 40 40" fill="none" xmlns="http://www.w3.org/2000/svg">
<circle cx="20" cy="20" r="20" fill="#F68701"/>
<g clip-path="url(#clip0_2001_3)">
<path d="M11.125 15.2916C11.125 14.7391 11.3445 14.2092 11.7352 13.8185C12.1259 13.4278 12.6558 13.2083 13.2083 13.2083H27.7917C28.3442 13.2083 28.8741 13.4278 29.2648 13.8185C29.6555 14.2092 29.875 14.7391 29.875 15.2916V25.7083C29.875 26.2608 29.6555 26.7908 29.2648 27.1815C28.8741 27.5722 28.3442 27.7916 27.7917 27.7916H13.2083C12.6558 27.7916 12.1259 27.5722 11.7352 27.1815C11.3445 26.7908 11.125 26.2608 11.125 25.7083V15.2916Z" stroke="white" stroke-width="1.75" stroke-linecap="round" stroke-linejoin="round"/>
<path d="M11.125 15.2917L20.5 21.5417L29.875 15.2917" stroke="white" stroke-width="1.75" stroke-linecap="round" stroke-linejoin="round"/>
</g>
<defs>
<clipPath id="clip0_2001_3">
<rect width="25" height="25" fill="white" transform="translate(8 8)"/>
</clipPath>
</defs>
</svg>
