<svg width="39" height="40" viewBox="0 0 39 40" fill="none" xmlns="http://www.w3.org/2000/svg">
<path d="M19.375 0.625C30 0.625 38.75 9.375 38.75 20C38.75 30.7031 30 39.375 19.375 39.375C8.67188 39.375 0 30.7031 0 20C0 9.375 8.67188 0.625 19.375 0.625ZM28.2812 13.8281C28.3594 13.5938 28.3594 13.3594 28.2812 13.0469C28.2812 12.8906 28.125 12.6562 28.0469 12.5781C27.8125 12.3438 27.4219 12.3438 27.2656 12.3438C26.5625 12.3438 25.3906 12.7344 20 15C18.125 15.7812 14.375 17.3438 8.75 19.8438C7.8125 20.2344 7.34375 20.5469 7.26562 20.9375C7.1875 21.5625 8.20312 21.7969 9.375 22.1875C10.3906 22.5 11.7188 22.8906 12.4219 22.8906C13.0469 22.8906 13.75 22.6562 14.5312 22.1094C19.7656 18.5156 22.5 16.7188 22.6562 16.7188C22.8125 16.7188 22.9688 16.6406 23.0469 16.7188C23.2031 16.875 23.2031 17.0312 23.125 17.1094C23.0469 17.5 18.125 22.0312 17.8125 22.3438C16.7188 23.4375 15.4688 24.1406 17.4219 25.3906C19.0625 26.4844 20 27.1875 21.7188 28.2812C22.8125 28.9844 23.6719 29.8438 24.7656 29.7656C25.3125 29.6875 25.8594 29.2188 26.0938 27.7344C26.7969 24.375 28.0469 16.875 28.2812 13.8281Z" fill="#EF8402"/>
</svg>
